HIERARCHY
ROOT root
{
  OFFSET 0 87.9003 0
  CHANNELS 6 Xposition Yposition Zposition Zrotation Xrotation Yrotation
  JOINT torso_1
  {
    OFFSET 0 4.78511 -1.08482
    CHANNELS 6 Xposition Yposition Zposition Zrotation Xrotation Yrotation
    JOINT torso_2
    {
      OFFSET 0 5.29195 1.00949
      CHANNELS 6 Xposition Yposition Zposition Zrotation Xrotation Yrotation
      JOINT torso_3
      {
        OFFSET -9.66735e-18 5.64355 0.108362
        CHANNELS 6 Xposition Yposition Zposition Zrotation Xrotation Yrotation
        JOINT torso_4
        {
          OFFSET -1.04072e-17 6.12977 -0.417886
          CHANNELS 6 Xposition Yposition Zposition Zrotation Xrotation Yrotation
          JOINT torso_5
          {
            OFFSET -1.85891e-17 7.16586 -1.41888
            CHANNELS 6 Xposition Yposition Zposition Zrotation Xrotation Yrotation
            JOINT torso_6
            {
              OFFSET -2.38665e-17 8.94839 -0.861631
              CHANNELS 6 Xposition Yposition Zposition Zrotation Xrotation Yrotation
              JOINT torso_7
              {
                OFFSET -2.73615e-17 9.94144 1.48576
                CHANNELS 6 Xposition Yposition Zposition Zrotation Xrotation Yrotation
                JOINT neck_1
                {
                  OFFSET -1.21725e-17 4.50977 0.67399
                  CHANNELS 6 Xposition Yposition Zposition Zrotation Xrotation Yrotation
                  JOINT neck_2
                  {
                    OFFSET -1.70689e-17 4.54241 0.39741
                    CHANNELS 6 Xposition Yposition Zposition Zrotation Xrotation Yrotation
                    JOINT head
                    {
                      OFFSET -1.89342e-17 4.5512 0.720839
                      CHANNELS 6 Xposition Yposition Zposition Zrotation Xrotation Yrotation
                      End Site
                      {
                        OFFSET 0 0.1 0
                      }
                    }
                  }
                }
                JOINT l_shoulder
                {
                  OFFSET 1.16172 -7.16758 7.09827
                  CHANNELS 6 Xposition Yposition Zposition Zrotation Xrotation Yrotation
                  JOINT l_up_arm
                  {
                    OFFSET 12.2059 3.06167 -3.07978
                    CHANNELS 6 Xposition Yposition Zposition Zrotation Xrotation Yrotation
                    JOINT l_low_arm
                    {
                      OFFSET 27.5197 0.056351 0.129118
                      CHANNELS 6 Xposition Yposition Zposition Zrotation Xrotation Yrotation
                      JOINT l_hand
                      {
                        OFFSET 22.8331 0.0467536 0.107129
                        CHANNELS 6 Xposition Yposition Zposition Zrotation Xrotation Yrotation
                        End Site
                        {
                          OFFSET 0.1 0 0
                        }
                      }
                    }
                  }
                }
                JOINT r_shoulder
                {
                  OFFSET -1.16172 -7.16756 7.09818
                  CHANNELS 6 Xposition Yposition Zposition Zrotation Xrotation Yrotation
                  JOINT r_up_arm
                  {
                    OFFSET -12.2059 3.06167 -3.07978
                    CHANNELS 6 Xposition Yposition Zposition Zrotation Xrotation Yrotation
                    JOINT r_low_arm
                    {
                      OFFSET -27.5197 0.056351 0.129118
                      CHANNELS 6 Xposition Yposition Zposition Zrotation Xrotation Yrotation
                      JOINT r_hand
                      {
                        OFFSET -22.8331 0.0467534 0.107129
                        CHANNELS 6 Xposition Yposition Zposition Zrotation Xrotation Yrotation
                        End Site
                        {
                          OFFSET -0.1 0 0
                        }
                      }
                    }
                  }
                }
              }
            }
          }
        }
      }
    }
  }
  JOINT l_up_leg
  {
    OFFSET 8.70282 -3.96247 1.9152
    CHANNELS 6 Xposition Yposition Zposition Zrotation Xrotation Yrotation
    JOINT l_low_leg
    {
      OFFSET -0.803084 -36.5309 -0.617314
      CHANNELS 6 Xposition Yposition Zposition Zrotation Xrotation Yrotation
      JOINT l_foot
      {
        OFFSET -2.19176 -38.0664 -5.69911
        CHANNELS 6 Xposition Yposition Zposition Zrotation Xrotation Yrotation
        JOINT l_toes
        {
          OFFSET 0.734061 -9.31305 11.7736
          CHANNELS 6 Xposition Yposition Zposition Zrotation Xrotation Yrotation
          End Site
          {
            OFFSET 0 0 0.1
          }
        }
      }
    }
  }
  JOINT r_up_leg
  {
    OFFSET -8.70282 -3.96247 1.9152
    CHANNELS 6 Xposition Yposition Zposition Zrotation Xrotation Yrotation
    JOINT r_low_leg
    {
      OFFSET 0.803084 -36.5309 -0.617314
      CHANNELS 6 Xposition Yposition Zposition Zrotation Xrotation Yrotation
      JOINT r_foot
      {
        OFFSET 2.19176 -38.0664 -5.69911
        CHANNELS 6 Xposition Yposition Zposition Zrotation Xrotation Yrotation
        JOINT r_toes
        {
          OFFSET -0.734061 -9.31305 11.7736
          CHANNELS 6 Xposition Yposition Zposition Zrotation Xrotation Yrotation
          End Site
          {
            OFFSET 0 0 0.1
          }
        }
      }
    }
  }
}
MOTION
Frames: 5
Frame Time: 0.020000
0 87.9003 0 -0 0 -0 0 4.78511 -1.08482 -0 0 -0 0 5.29195 1.00949 -0 0 -0 -9.66735e-18 5.64355 0.108362 -0 0 -0 -1.04072e-17 6.12977 -0.417886 -0 0 -0 -1.85891e-17 7.16586 -1.41888 -0 0 -0 -2.38665e-17 8.94839 -0.861631 -0 0 -0 -2.73615e-17 9.94144 1.48576 -0 0 -0 -1.21725e-17 4.50977 0.67399 -0 0 -0 -1.70689e-17 4.54241 0.39741 -0 0 -0 -1.89342e-17 4.5512 0.720839 -0 0 -0 1.16172 -7.16758 7.09827 -0 0 -0 12.2059 3.06167 -3.07978 -0 0 -0 27.5197 0.056351 0.129118 -0 0 -0 22.8331 0.0467536 0.107129 -0 0 -0 -1.16172 -7.16756 7.09818 -0 0 -0 -12.2059 3.06167 -3.07978 -0 0 -0 -27.5197 0.056351 0.129118 -0 0 -0 -22.8331 0.0467534 0.107129 -0 0 -0 8.70282 -3.96247 1.9152 -0 0 -0 -0.803084 -36.5309 -0.617314 -0 0 -0 -2.19176 -38.0664 -5.69911 -0 0 -0 0.734061 -9.31305 11.7736 -0 0 -0 -8.70282 -3.96247 1.9152 -0 0 -0 0.803084 -36.5309 -0.617314 -0 0 -0 2.19176 -38.0664 -5.69911 -0 0 -0 -0.734061 -9.31305 11.7736 -0 0 -0 
-0.525202 86.3794 -17.6399 -0.556575 -0.865549 -1.41277 0 4.78511 -1.08482 0.332215 -0.078584 0.194637 0 5.29195 1.00949 0.402713 0.252269 0.2069 -9.66735e-18 5.64355 0.108362 0.350119 0.891465 0.319563 -1.04072e-17 6.12977 -0.417886 0.290455 1.56567 0.362512 -1.85891e-17 7.16586 -1.41888 0.308603 1.71305 0.28723 -2.38665e-17 8.94839 -0.861631 0.426669 1.78165 0.011186 -2.73615e-17 9.94144 1.48576 -0.0435588 0.840967 0.077606 -1.21725e-17 4.50977 0.67399 0.213171 -1.29052 -1.11359 -1.70689e-17 4.54241 0.39741 0.489357 -4.05008 -0.632298 -1.89342e-17 4.5512 0.720839 -1.08517 -2.64302 1.43306 1.16172 -7.16758 7.09827 -0.322335 2.68119 -0.98294 12.2059 3.06167 -3.07978 -81.9954 17.3251 -6.14297 27.5197 0.056351 0.129118 3.07431 -0.387967 -14.9739 22.8331 0.0467536 0.107129 1.70705 -24.4839 -4.51953 -1.16172 -7.16756 7.09818 3.75001 4.32868 0.948154 -12.2059 3.06167 -3.07978 78.321 18.1946 2.49146 -27.5197 0.056351 0.129118 -2.79112 -0.317357 13.5674 -22.8331 0.0467534 0.107129 1.95988 -17.9852 4.41395 8.70282 -3.96247 1.9152 12.4205 0.731278 -18.8015 -0.803084 -36.5309 -0.617314 -0.215171 0.803245 -0.0125122 -2.19176 -38.0664 -5.69911 -9.66517 -4.28266 16.3532 0.734061 -9.31305 11.7736 -3.72721e-16 -8.07563e-16 2.48481e-17 -8.70282 -3.96247 1.9152 -8.55917 -1.74815 17.0302 0.803084 -36.5309 -0.617314 0.016193 0.0604263 0.00104671 2.19176 -38.0664 -5.69911 5.92024 -3.33262 -15.6847 -0.734061 -9.31305 11.7736 -5.96354e-16 -5.59082e-16 -1.27471e-14 
-0.527218 86.3802 -17.6373 -0.541554 -0.861215 -1.44574 0 4.78511 -1.08482 0.335778 -0.0764963 0.201314 0 5.29195 1.00949 0.40437 0.253265 0.214048 -9.66735e-18 5.64355 0.108362 0.350696 0.890956 0.326845 -1.04072e-17 6.12977 -0.417886 0.289803 1.56342 0.370039 -1.85891e-17 7.16586 -1.41888 0.308288 1.70874 0.294934 -2.38665e-17 8.94839 -0.861631 0.427693 1.77681 0.0189864 -2.73615e-17 9.94144 1.48576 -0.0440082 0.841001 0.0784346 -1.21725e-17 4.50977 0.67399 0.206468 -1.30664 -1.12326 -1.70689e-17 4.54241 0.39741 0.486307 -4.03523 -0.637046 -1.89342e-17 4.5512 0.720839 -1.10257 -2.62485 1.4324 1.16172 -7.16758 7.09827 -0.3022 2.68138 -0.976007 12.2059 3.06167 -3.07978 -82.0327 17.2164 -6.10028 27.5197 0.056351 0.129118 3.06703 -0.386062 -14.9376 22.8331 0.0467536 0.107129 1.70035 -24.7289 -4.53011 -1.16172 -7.16756 7.09818 3.78309 4.34299 0.951579 -12.2059 3.06167 -3.07978 78.2846 18.1888 2.50769 -27.5197 0.056351 0.129118 -2.77455 -0.313461 13.4854 -22.8331 0.0467534 0.107129 1.98047 -18.0548 4.38281 8.70282 -3.96247 1.9152 12.4043 0.739019 -18.7708 -0.803084 -36.5309 -0.617314 -0.214749 0.80167 -0.0124906 -2.19176 -38.0664 -5.69911 -9.66355 -4.27013 16.3553 0.734061 -9.31305 11.7736 -2.71668e-17 -7.96764e-16 1.40495e-17 -8.70282 -3.96247 1.9152 -8.57105 -1.76605 17.0546 0.803084 -36.5309 -0.617314 0.0199842 0.0745742 0.00128919 2.19176 -38.0664 -5.69911 5.92077 -3.34554 -15.6846 -0.734061 -9.31305 11.7736 -5.96354e-16 -5.59082e-16 -1.27471e-14 
-0.530044 86.3811 -17.6348 -0.543622 -0.858273 -1.48405 0 4.78511 -1.08482 0.342862 -0.073208 0.208835 0 5.29195 1.00949 0.409018 0.2544 0.222288 -9.66735e-18 5.64355 0.108362 0.353556 0.889551 0.335271 -1.04072e-17 6.12977 -0.417886 0.29077 1.5577 0.378644 -1.85891e-17 7.16586 -1.41888 0.309153 1.69977 0.303526 -2.38665e-17 8.94839 -0.861631 0.429672 1.76656 0.0275565 -2.73615e-17 9.94144 1.48576 -0.0440701 0.841662 0.0790301 -1.21725e-17 4.50977 0.67399 0.201588 -1.32352 -1.13784 -1.70689e-17 4.54241 0.39741 0.482993 -4.02515 -0.643772 -1.89342e-17 4.5512 0.720839 -1.12091 -2.60046 1.41564 1.16172 -7.16758 7.09827 -0.294437 2.68844 -0.980401 12.2059 3.06167 -3.07978 -82.0604 17.135 -6.05565 27.5197 0.056351 0.129118 3.05658 -0.383339 -14.8857 22.8331 0.0467536 0.107129 1.68433 -24.9265 -4.55883 -1.16172 -7.16756 7.09818 3.81278 4.3611 0.957213 -12.2059 3.06167 -3.07978 78.2555 18.1653 2.53005 -27.5197 0.056351 0.129118 -2.75693 -0.309347 13.3983 -22.8331 0.0467534 0.107129 1.9848 -18.1197 4.3724 8.70282 -3.96247 1.9152 12.4073 0.750974 -18.7418 -0.803084 -36.5309 -0.617314 -0.214264 0.79986 -0.0124658 -2.19176 -38.0664 -5.69911 -9.65583 -4.26587 16.3561 0.734061 -9.31305 11.7736 -3.20702e-16 -8.05937e-16 2.32225e-17 -8.70282 -3.96247 1.9152 -8.56424 -1.77012 17.0805 0.803084 -36.5309 -0.617314 0.0167523 0.0625131 0.00108253 2.19176 -38.0664 -5.69911 5.92515 -3.34064 -15.6849 -0.734061 -9.31305 11.7736 -5.96354e-16 -5.59082e-16 -1.27471e-14 
-0.532571 86.3824 -17.6324 -0.547865 -0.857235 -1.51441 0 4.78511 -1.08482 0.348466 -0.067355 0.213698 0 5.29195 1.00949 0.412894 0.25695 0.227552 -9.66735e-18 5.64355 0.108362 0.355974 0.888165 0.340594 -1.04072e-17 6.12977 -0.417886 0.291755 1.54958 0.383956 -1.85891e-17 7.16586 -1.41888 0.309746 1.68726 0.308819 -2.38665e-17 8.94839 -0.861631 0.430602 1.75138 0.0330327 -2.73615e-17 9.94144 1.48576 -0.0440629 0.842792 0.0792821 -1.21725e-17 4.50977 0.67399 0.196261 -1.3351 -1.16066 -1.70689e-17 4.54241 0.39741 0.472433 -4.01338 -0.654459 -1.89342e-17 4.5512 0.720839 -1.1262 -2.57582 1.4134 1.16172 -7.16758 7.09827 -0.292681 2.69842 -0.986881 12.2059 3.06167 -3.07978 -82.0686 17.0742 -6.0174 27.5197 0.056351 0.129118 3.04419 -0.38012 -14.824 22.8331 0.0467536 0.107129 1.65406 -25.0444 -4.5738 -1.16172 -7.16756 7.09818 3.82936 4.37508 0.962194 -12.2059 3.06167 -3.07978 78.2379 18.1079 2.55194 -27.5197 0.056351 0.129118 -2.74298 -0.306108 13.3294 -22.8331 0.0467534 0.107129 1.99081 -18.2153 4.39053 8.70282 -3.96247 1.9152 12.4126 0.764374 -18.7128 -0.803084 -36.5309 -0.617314 -0.212953 0.794962 -0.0123986 -2.19176 -38.0664 -5.69911 -9.65523 -4.26123 16.3564 0.734061 -9.31305 11.7736 -2.71716e-17 -7.96764e-16 1.40497e-17 -8.70282 -3.96247 1.9152 -8.55806 -1.76666 17.1009 0.803084 -36.5309 -0.617314 0.0115324 0.0430342 0.000747336 2.19176 -38.0664 -5.69911 5.94025 -3.33231 -15.6842 -0.734061 -9.31305 11.7736 -5.96354e-16 -5.59082e-16 -1.27471e-14 
